<svg width="209" height="208" viewBox="0 0 209 208" fill="none" xmlns="http://www.w3.org/2000/svg">
<g clip-path="url(#clip0_239_514)">
<mask id="mask0_239_514" style="mask-type:luminance" maskUnits="userSpaceOnUse" x="0" y="-1" width="209" height="209">
<path d="M208.222 82.8243L83.1641 -0.00390625L0.335901 125.054L125.394 207.882L208.222 82.8243Z" fill="white"/>
</mask>
<g mask="url(#mask0_239_514)">
<path d="M121.145 39.8483C138.155 31.5218 157.845 44.5625 156.815 63.473L156.777 64.1597C156.303 72.8842 160.453 81.2143 167.703 86.0896L168.274 86.4738C183.99 97.0418 182.541 120.613 165.649 129.177L165.035 129.488C157.243 133.439 152.103 141.198 151.506 149.915L151.46 150.601C150.166 169.496 129.028 180.027 113.165 169.68L112.589 169.303C105.271 164.53 95.9817 163.96 88.1341 167.8L87.5164 168.103C70.5064 176.43 50.817 163.389 51.8466 144.478L51.884 143.791C52.3587 135.068 48.2085 126.737 40.9585 121.861L40.3875 121.478C24.6716 110.91 26.1202 87.3384 43.0123 78.7742L43.6257 78.4635C51.4184 74.5129 56.5577 66.7532 57.1548 58.0366L57.2018 57.3504C58.496 38.456 79.634 27.9249 95.4964 38.2718L96.0725 38.6476C103.39 43.4209 112.68 43.9919 120.527 40.1507L121.145 39.8483Z" fill="#FFB801"/>
</g>
<path d="M104.721 49.0625C110.377 52.8088 116.248 56.8431 121.578 61.0751C127.669 65.9113 134.588 69.5764 140.662 74.4085C143.866 76.9568 147.133 79.6692 150.373 82.0731C151.189 82.6788 154.478 84.0754 154.714 85.1025C154.86 85.7348 151.787 83.7004 151.658 83.6178C146.926 80.5833 141.497 78.1681 136.369 75.8806C124.838 70.7367 112.9 66.3097 101.183 61.5921C95.604 59.346 89.6906 58.2325 84.2096 55.7447C83.7051 55.5157 81.2854 54.003 80.7316 54.1347C79.6722 54.3866 81.7935 56.071 82.6709 56.6521C107.155 72.8684 181.067 120.805 156.123 105.301C151.555 102.461 145.574 101.708 140.552 99.8424C133.123 97.083 125.921 93.8685 118.375 91.3962C107.013 87.6738 96.0577 82.865 84.7328 79.1324C78.1618 76.9667 71.7042 74.3847 65.0775 72.4334C63.9207 72.0928 58.7992 69.9705 62.3918 72.3499C74.9008 80.6349 87.7423 88.4465 100.265 96.7403C106.969 101.181 113.43 105.991 119.891 110.78C124.717 114.356 130.226 117.289 134.696 121.317C138.389 124.645 141.799 127.717 145.949 130.465C146.818 131.041 150.973 133.793 151.842 134.369C154.704 136.264 141.81 130.642 138.493 129.688C128.283 126.753 118.312 122.331 108.472 118.436C98.9097 114.651 89.3548 110.848 80.0171 106.564C71.1329 102.487 62.257 98.3884 53.2472 94.6518C51.9753 94.1243 50.8442 93.4032 49.5258 92.9191C46.1613 91.6838 55.5614 96.7616 58.752 98.3748C66.1306 102.105 72.8501 107.019 79.7283 111.574C85.9598 115.701 91.0217 120.965 96.8017 125.656C107.19 134.088 117.874 141.694 129.035 149.086C130.997 150.385 127.935 149.239 127.26 148.989C120.739 146.578 113.991 144.853 107.382 142.682C99.6981 140.158 92.0709 137.221 84.2727 135.044C78.7001 133.488 72.9898 132.218 67.5787 130.19C63.6418 128.715 59.6474 127.152 55.7883 125.502C55.0997 125.208 50.6512 122.573 52.6594 124.509C56.3687 128.085 61.6499 130.117 65.9302 132.952C70.6182 136.057 75.3061 139.161 79.994 142.266C87.9808 147.556 95.6838 153.352 103.591 158.588" stroke="white" stroke-width="3" stroke-linecap="round" stroke-linejoin="round"/>
</g>
<defs>
<clipPath id="clip0_239_514">
<rect width="150" height="150" fill="white" transform="translate(83.1621) rotate(33.5172)"/>
</clipPath>
</defs>
</svg>
