<svg width="150" height="151" viewBox="0 0 150 151" fill="none" xmlns="http://www.w3.org/2000/svg">
<g clip-path="url(#clip0_239_471)">
<mask id="mask0_239_471" style="mask-type:luminance" maskUnits="userSpaceOnUse" x="-1" y="0" width="151" height="151">
<path d="M149.998 0.160156H-0.00195312V150.16H149.998V0.160156Z" fill="white"/>
</mask>
<g mask="url(#mask0_239_471)">
<path d="M53.6645 12.4112C63.2485 -3.92352 86.8649 -3.92351 96.4484 12.4112L96.7964 13.0044C101.218 20.5401 109.278 25.1936 118.015 25.2548L118.703 25.2596C137.641 25.3922 149.449 45.8444 140.095 62.3117L139.755 62.9097C135.439 70.5066 135.439 79.8139 139.755 87.4106L140.095 88.0084C149.449 104.476 137.641 124.928 118.703 125.061L118.015 125.065C109.278 125.127 101.218 129.78 96.7964 137.316L96.4484 137.909C86.8649 154.244 63.2485 154.244 53.6645 137.909L53.3165 137.316C48.8951 129.78 40.8349 125.127 32.0981 125.065L31.4103 125.061C12.4721 124.928 0.66405 104.476 10.0183 88.0084L10.358 87.4106C14.6735 79.8139 14.6735 70.5066 10.358 62.9097L10.0183 62.3117C0.66405 45.8444 12.4721 25.3922 31.4103 25.2596L32.0981 25.2548C40.835 25.1936 48.8951 20.5401 53.3165 13.0044L53.6645 12.4112Z" fill="#FFD301"/>
</g>
<path d="M45.0663 29.1719C51.8507 29.1719 58.9734 29.2932 65.7538 29.8786C73.502 30.5475 81.2946 29.7825 89.0272 30.4568C93.1051 30.8125 97.3271 31.2696 101.355 31.4848C102.371 31.539 105.883 30.8875 106.648 31.6133C107.118 32.0601 103.433 32.0607 103.28 32.063C97.6587 32.1464 91.7995 33.1301 86.2608 34.0547C73.8064 36.1336 61.4095 39.0345 49.0354 41.5716C43.1438 42.7796 37.5988 45.1165 31.6555 46.0689C31.1084 46.1566 28.2558 46.2316 27.8668 46.6471C27.1227 47.4421 29.8213 47.6751 30.8737 47.6751C60.2411 47.6751 148.333 46.8275 118.976 47.6751C113.599 47.8304 108.197 50.5049 102.979 51.7227C95.2623 53.524 87.4826 54.821 79.8261 56.9267C68.298 60.0971 56.509 62.1374 45.0061 65.2789C38.3318 67.1017 31.5223 68.5148 24.92 70.5472C23.7674 70.9019 18.3257 71.9606 22.6348 71.9606C37.6386 71.9606 52.6583 71.3824 67.6782 71.3824C75.7196 71.3824 83.7626 71.825 91.7935 72.2497C97.7914 72.5669 104.005 71.9701 109.955 72.8601C114.872 73.5955 119.412 74.2735 124.388 74.2735C125.431 74.2735 130.415 74.2735 131.458 74.2735C134.89 74.2735 121.036 76.7061 117.743 77.7429C107.611 80.9333 96.8553 82.7528 86.5014 84.9386C76.4385 87.0629 66.3727 89.1689 56.2219 90.7529C46.5639 92.26 36.9005 93.7437 27.3255 95.6036C25.9739 95.8662 24.6327 95.8896 23.2662 96.214C19.779 97.0418 30.4199 96.0847 33.9708 95.6679C42.1825 94.7038 50.4977 95.0896 58.7477 95.0896C66.2221 95.0896 73.3489 96.6829 80.7582 97.4025C94.0745 98.6958 107.183 99.1372 120.57 99.1372C122.922 99.1372 119.736 99.8721 119.036 100.037C112.268 101.627 105.689 103.915 98.98 105.755C91.1804 107.893 83.1999 109.657 75.4961 112.147C69.9909 113.927 64.5289 116.022 58.898 117.319C54.8012 118.263 50.6075 119.165 46.4795 119.921C45.7428 120.056 40.5788 120.315 43.3223 120.821C48.3896 121.754 53.9144 120.532 59.0484 120.532C64.6713 120.532 70.2942 120.532 75.9171 120.532C85.4968 120.532 95.119 121.11 104.603 121.11" stroke="white" stroke-width="3" stroke-linecap="round" stroke-linejoin="round"/>
</g>
<defs>
<clipPath id="clip0_239_471">
<rect width="150" height="150" fill="white" transform="translate(-0.00195312 0.171875)"/>
</clipPath>
</defs>
</svg>
