<svg width="130" height="32" viewBox="0 0 130 32" fill="none" xmlns="http://www.w3.org/2000/svg">
<g clip-path="url(#clip0_239_601)">
<path d="M39.2129 22.763H48.3527V20.01H42.4614V9.64062H39.2129V22.763Z" fill="#EAEAEA"/>
<path d="M53.7662 20.9238C52.4632 20.9238 51.7841 19.7859 51.7841 18.0791C51.7841 16.3723 52.4632 15.2161 53.7662 15.2161C55.0693 15.2161 55.7667 16.3723 55.7667 18.0791C55.7667 19.7859 55.0693 20.9238 53.7662 20.9238ZM53.7846 23.0528C56.8128 23.0528 58.7949 20.9055 58.7949 18.0791C58.7949 15.2528 56.8128 13.1055 53.7846 13.1055C50.7747 13.1055 48.7559 15.2528 48.7559 18.0791C48.7559 20.9055 50.7747 23.0528 53.7846 23.0528Z" fill="#EAEAEA"/>
<path d="M64.0382 26.0103C65.433 26.0103 66.6626 25.6983 67.4885 24.9642C68.241 24.2851 68.7365 23.2574 68.7365 21.8442V13.3651H65.8735V14.3745H65.8368C65.2862 13.5854 64.4419 13.0898 63.1939 13.0898C60.8631 13.0898 59.248 15.0353 59.248 17.7882C59.248 20.6696 61.2118 22.248 63.3224 22.248C64.4603 22.248 65.176 21.7891 65.7266 21.1651H65.8V22.1011C65.8 23.239 65.2678 23.8997 64.0015 23.8997C63.0104 23.8997 62.5149 23.4776 62.3497 22.9821H59.4499C59.7436 24.9458 61.4504 26.0103 64.0382 26.0103ZM64.0198 20.0273C62.9003 20.0273 62.1662 19.1096 62.1662 17.6964C62.1662 16.2649 62.9003 15.3473 64.0198 15.3473C65.2678 15.3473 65.9285 16.4117 65.9285 17.6781C65.9285 18.9995 65.3229 20.0273 64.0198 20.0273Z" fill="#EAEAEA"/>
<path d="M74.6236 20.9238C73.3206 20.9238 72.6415 19.7859 72.6415 18.0791C72.6415 16.3723 73.3206 15.2161 74.6236 15.2161C75.9267 15.2161 76.6238 16.3723 76.6238 18.0791C76.6238 19.7859 75.9267 20.9238 74.6236 20.9238ZM74.642 23.0528C77.6699 23.0528 79.652 20.9055 79.652 18.0791C79.652 15.2528 77.6699 13.1055 74.642 13.1055C71.6321 13.1055 69.6133 15.2528 69.6133 18.0791C69.6133 20.9055 71.6321 23.0528 74.642 23.0528Z" fill="#EAEAEA"/>
<path d="M80.5254 22.763H83.5169V13.3663H80.5254V22.763ZM80.5254 12.0632H83.5169V9.64062H80.5254V12.0632Z" fill="#EAEAEA"/>
<path d="M84.8145 25.8635H87.806V21.7891H87.8427C88.43 22.5783 89.2926 23.0555 90.5039 23.0555C92.9632 23.0555 94.5966 21.1101 94.5966 18.0635C94.5966 15.2371 93.0733 13.0898 90.5773 13.0898C89.2926 13.0898 88.3749 13.6588 87.7326 14.503H87.6775V13.3651H84.8145V25.8635ZM89.733 20.743C88.4483 20.743 87.7142 19.6969 87.7142 18.1736C87.7142 16.6503 88.3749 15.4941 89.678 15.4941C90.9627 15.4941 91.5683 16.5586 91.5683 18.1736C91.5683 19.7703 90.8709 20.743 89.733 20.743Z" fill="#EAEAEA"/>
<path d="M99.4683 23.0555C101.928 23.0555 103.745 21.991 103.745 19.9355C103.745 17.5313 101.799 17.1091 100.147 16.8338C98.9544 16.6136 97.89 16.5218 97.89 15.8611C97.89 15.2738 98.4589 14.9985 99.193 14.9985C100.019 14.9985 100.588 15.2555 100.698 16.0997H103.451C103.304 14.2461 101.873 13.0898 99.2114 13.0898C96.9907 13.0898 95.1554 14.1176 95.1554 16.0997C95.1554 18.3021 96.8989 18.7425 98.5323 19.0178C99.7803 19.2381 100.918 19.3298 100.918 20.1741C100.918 20.7797 100.349 21.1101 99.45 21.1101C98.4589 21.1101 97.8349 20.6513 97.7248 19.7153H94.8984C94.9902 21.7891 96.7154 23.0555 99.4683 23.0555Z" fill="#EAEAEA"/>
<path d="M107.807 23.0353C109.11 23.0353 109.936 22.5214 110.615 21.6038H110.67V22.76H113.534V13.3633H110.542V18.6122C110.542 19.7318 109.918 20.5026 108.89 20.5026C107.936 20.5026 107.477 19.9336 107.477 18.9059V13.3633H104.504V19.5299C104.504 21.6221 105.642 23.0353 107.807 23.0353Z" fill="#EAEAEA"/>
<path d="M114.834 22.7618H117.826V17.4945C117.826 16.375 118.376 15.5858 119.312 15.5858C120.211 15.5858 120.634 16.1731 120.634 17.1826V22.7618H123.625V17.4945C123.625 16.375 124.157 15.5858 125.112 15.5858C126.011 15.5858 126.433 16.1731 126.433 17.1826V22.7618H129.425V16.6503C129.425 14.5397 128.36 13.0898 126.231 13.0898C125.02 13.0898 124.01 13.6037 123.276 14.7416H123.24C122.762 13.7322 121.826 13.0898 120.597 13.0898C119.239 13.0898 118.339 13.7322 117.752 14.7049H117.697V13.3651H114.834V22.7618Z" fill="#EAEAEA"/>
<path fill-rule="evenodd" clip-rule="evenodd" d="M15.3722 31.1702C23.819 31.1702 30.6663 24.3228 30.6663 15.8761C30.6663 7.42944 23.819 0.582031 15.3722 0.582031C6.92552 0.582031 0.078125 7.42944 0.078125 15.8761C0.078125 24.3228 6.92552 31.1702 15.3722 31.1702ZM17.7329 12.3987C19.0365 11.0949 19.0365 8.98122 17.7329 7.67748C16.4291 6.37374 14.3154 6.37374 13.0116 7.67748C11.708 8.98122 11.708 11.0949 13.0116 12.3987L15.3722 14.7593L17.7329 12.3987ZM18.8497 18.2368C20.1535 19.5405 22.2672 19.5405 23.5709 18.2368C24.8746 16.933 24.8746 14.8193 23.5709 13.5155C22.2672 12.2119 20.1535 12.2119 18.8497 13.5155L16.4891 15.8762L18.8497 18.2368ZM17.7329 24.0748C19.0365 22.7711 19.0365 20.6574 17.7329 19.3536L15.3722 16.993L13.0116 19.3536C11.708 20.6574 11.708 22.7711 13.0116 24.0748C14.3154 25.3786 16.4291 25.3786 17.7329 24.0748ZM7.17355 18.2368C5.86985 16.933 5.86985 14.8193 7.17355 13.5155C8.47732 12.2119 10.591 12.2119 11.8948 13.5155L14.2554 15.8762L11.8948 18.2368C10.591 19.5405 8.47732 19.5405 7.17355 18.2368Z" fill="#55B250"/>
</g>
<defs>
<clipPath id="clip0_239_601">
<rect width="130" height="31.3529" fill="white" transform="translate(0 0.332031)"/>
</clipPath>
</defs>
</svg>
