<svg width="133" height="33" viewBox="0 0 133 33" fill="none" xmlns="http://www.w3.org/2000/svg">
<g clip-path="url(#clip0_239_560)">
<path d="M40.0215 23.0611H49.3499V20.2514H43.337V9.66797H40.0215V23.0611Z" fill="#EAEAEA"/>
<path d="M54.8774 21.1828C53.5475 21.1828 52.8544 20.0215 52.8544 18.2794C52.8544 16.5374 53.5475 15.3573 54.8774 15.3573C56.2074 15.3573 56.9192 16.5374 56.9192 18.2794C56.9192 20.0215 56.2074 21.1828 54.8774 21.1828ZM54.8962 23.3557C57.9869 23.3557 60.0099 21.1641 60.0099 18.2794C60.0099 15.3947 57.9869 13.2031 54.8962 13.2031C51.8242 13.2031 49.7637 15.3947 49.7637 18.2794C49.7637 21.1641 51.8242 23.3557 54.8962 23.3557Z" fill="#EAEAEA"/>
<path d="M65.3597 26.3746C66.7833 26.3746 68.0383 26.0562 68.8812 25.3069C69.6492 24.6138 70.155 23.5649 70.155 22.1225V13.4685H67.2329V14.4987H67.1954C66.6334 13.6933 65.7718 13.1875 64.498 13.1875C62.1191 13.1875 60.4707 15.1731 60.4707 17.9828C60.4707 20.9237 62.475 22.5346 64.6291 22.5346C65.7905 22.5346 66.521 22.0663 67.083 21.4295H67.1579V22.3848C67.1579 23.5461 66.6147 24.2205 65.3222 24.2205C64.3107 24.2205 63.8049 23.7896 63.6364 23.2839H60.6768C60.9765 25.2882 62.7185 26.3746 65.3597 26.3746ZM65.341 20.2681C64.1983 20.2681 63.449 19.3315 63.449 17.8892C63.449 16.4281 64.1983 15.4915 65.341 15.4915C66.6147 15.4915 67.289 16.5779 67.289 17.8704C67.289 19.2191 66.6709 20.2681 65.341 20.2681Z" fill="#EAEAEA"/>
<path d="M76.1626 21.1828C74.8326 21.1828 74.1396 20.0215 74.1396 18.2794C74.1396 16.5374 74.8326 15.3573 76.1626 15.3573C77.4925 15.3573 78.204 16.5374 78.204 18.2794C78.204 20.0215 77.4925 21.1828 76.1626 21.1828ZM76.1813 23.3557C79.2717 23.3557 81.2948 21.1641 81.2948 18.2794C81.2948 15.3947 79.2717 13.2031 76.1813 13.2031C73.1093 13.2031 71.0488 15.3947 71.0488 18.2794C71.0488 21.1641 73.1093 23.3557 76.1813 23.3557Z" fill="#EAEAEA"/>
<path d="M82.1875 23.0611H85.2408V13.4705H82.1875V23.0611ZM82.1875 12.1406H85.2408V9.66797H82.1875V12.1406Z" fill="#EAEAEA"/>
<path d="M86.5645 26.2248H89.6177V22.0663H89.6552C90.2546 22.8718 91.135 23.3588 92.3713 23.3588C94.8813 23.3588 96.5485 21.3733 96.5485 18.2638C96.5485 15.3791 94.9937 13.1875 92.4462 13.1875C91.135 13.1875 90.1984 13.7682 89.5428 14.6298H89.4866V13.4685H86.5645V26.2248ZM91.5846 20.9986C90.2733 20.9986 89.5241 19.9309 89.5241 18.3762C89.5241 16.8215 90.1984 15.6414 91.5284 15.6414C92.8396 15.6414 93.4577 16.7278 93.4577 18.3762C93.4577 20.0058 92.7459 20.9986 91.5846 20.9986Z" fill="#EAEAEA"/>
<path d="M101.522 23.3588C104.032 23.3588 105.886 22.2724 105.886 20.1744C105.886 17.7206 103.901 17.2897 102.215 17.0088C100.997 16.784 99.9107 16.6903 99.9107 16.016C99.9107 15.4166 100.491 15.1356 101.241 15.1356C102.084 15.1356 102.664 15.3978 102.777 16.2595H105.586C105.437 14.3676 103.975 13.1875 101.259 13.1875C98.9928 13.1875 97.1197 14.2365 97.1197 16.2595C97.1197 18.5073 98.8992 18.9569 100.566 19.2378C101.84 19.4626 103.001 19.5563 103.001 20.4179C103.001 21.0361 102.421 21.3733 101.503 21.3733C100.491 21.3733 99.8545 20.905 99.7421 19.9496H96.8574C96.9511 22.0663 98.7119 23.3588 101.522 23.3588Z" fill="#EAEAEA"/>
<path d="M110.032 23.3404C111.362 23.3404 112.205 22.8159 112.898 21.8793H112.954V23.0594H115.876V13.4688H112.823V18.826C112.823 19.9687 112.186 20.7554 111.137 20.7554C110.163 20.7554 109.695 20.1747 109.695 19.1257V13.4688H106.66V19.7626C106.66 21.898 107.822 23.3404 110.032 23.3404Z" fill="#EAEAEA"/>
<path d="M117.203 23.0591H120.256V17.6831C120.256 16.5405 120.818 15.735 121.774 15.735C122.692 15.735 123.122 16.3344 123.122 17.3647V23.0591H126.176V17.6831C126.176 16.5405 126.719 15.735 127.693 15.735C128.611 15.735 129.042 16.3344 129.042 17.3647V23.0591H132.095V16.8215C132.095 14.6673 131.008 13.1875 128.836 13.1875C127.599 13.1875 126.569 13.712 125.82 14.8734H125.782C125.295 13.8431 124.34 13.1875 123.085 13.1875C121.699 13.1875 120.781 13.8431 120.181 14.8359H120.125V13.4685H117.203V23.0591Z" fill="#EAEAEA"/>
<path fill-rule="evenodd" clip-rule="evenodd" d="M15.6879 31.6414C24.309 31.6414 31.2976 24.6526 31.2976 16.0316C31.2976 7.4106 24.309 0.421875 15.6879 0.421875C7.06684 0.421875 0.078125 7.4106 0.078125 16.0316C0.078125 24.6526 7.06684 31.6414 15.6879 31.6414ZM18.0972 12.4824C19.4278 11.1518 19.4278 8.99441 18.0972 7.66375C16.7666 6.33312 14.6092 6.33312 13.2786 7.66375C11.948 8.99441 11.948 11.1518 13.2786 12.4824L15.6879 14.8917L18.0972 12.4824ZM19.2371 18.441C20.5678 19.7716 22.7251 19.7716 24.0558 18.441C25.3863 17.1103 25.3863 14.953 24.0558 13.6223C22.7251 12.2917 20.5678 12.2917 19.2371 13.6223L16.8278 16.0317L19.2371 18.441ZM18.0972 24.3995C19.4278 23.0689 19.4278 20.9115 18.0972 19.5809L15.6879 17.1716L13.2786 19.5809C11.948 20.9115 11.948 23.0689 13.2786 24.3995C14.6092 25.7302 16.7666 25.7302 18.0972 24.3995ZM7.31998 18.441C5.98938 17.1103 5.98938 14.953 7.31998 13.6223C8.65066 12.2917 10.808 12.2917 12.1387 13.6223L14.5479 16.0317L12.1387 18.441C10.808 19.7716 8.65066 19.7716 7.31998 18.441Z" fill="#55B250"/>
</g>
<defs>
<clipPath id="clip0_239_560">
<rect width="132.683" height="32" fill="white" transform="translate(0 0.167969)"/>
</clipPath>
</defs>
</svg>
