<svg width="17" height="18" viewBox="0 0 17 18" fill="none" xmlns="http://www.w3.org/2000/svg">
<path d="M9.38138 2.21875C10.1626 2.22083 10.5592 2.225 10.9015 2.23472L11.0362 2.23958C11.1918 2.24514 11.3453 2.25208 11.5307 2.26042C12.2696 2.29514 12.7737 2.41181 13.2161 2.58333C13.6744 2.75972 14.0606 2.99861 14.4467 3.38403C14.7999 3.73106 15.0732 4.15102 15.2474 4.61458C15.4189 5.05694 15.5356 5.56111 15.5703 6.30069C15.5786 6.48542 15.5855 6.63889 15.5911 6.79514L15.5953 6.92986C15.6057 7.27153 15.6099 7.66806 15.6112 8.44931L15.6119 8.96736V9.87708C15.6136 10.3836 15.6083 10.8901 15.596 11.3965L15.5918 11.5312C15.5862 11.6875 15.5793 11.841 15.571 12.0257C15.5362 12.7653 15.4182 13.2687 15.2474 13.7118C15.0732 14.1754 14.7999 14.5953 14.4467 14.9424C14.0996 15.2956 13.6797 15.5689 13.2161 15.7431C12.7737 15.9146 12.2696 16.0312 11.5307 16.066L11.0362 16.0868L10.9015 16.091C10.5592 16.1007 10.1626 16.1056 9.38138 16.1069L8.86333 16.1076H7.9543C7.44754 16.1094 6.94078 16.1041 6.43416 16.0917L6.29944 16.0875C6.13459 16.0813 5.96977 16.0741 5.805 16.066C5.06611 16.0312 4.56194 15.9146 4.11888 15.7431C3.65557 15.5688 3.23586 15.2955 2.88902 14.9424C2.53551 14.5954 2.26202 14.1754 2.08763 13.7118C1.91611 13.2694 1.79944 12.7653 1.76472 12.0257L1.74388 11.5312L1.74041 11.3965C1.72761 10.8902 1.72182 10.3836 1.72305 9.87708V8.44931C1.72113 7.94278 1.72622 7.43625 1.73833 6.92986L1.74319 6.79514C1.74875 6.63889 1.75569 6.48542 1.76402 6.30069C1.79875 5.56111 1.91541 5.05764 2.08694 4.61458C2.26173 4.15083 2.53571 3.73086 2.88972 3.38403C3.23635 3.03094 3.65582 2.75769 4.11888 2.58333C4.56194 2.41181 5.06541 2.29514 5.805 2.26042C5.98972 2.25208 6.14388 2.24514 6.29944 2.23958L6.43416 2.23542C6.94055 2.22308 7.44708 2.21775 7.95361 2.21944L9.38138 2.21875ZM8.6675 5.69097C7.7466 5.69097 6.86343 6.05679 6.21226 6.70796C5.5611 7.35913 5.19527 8.2423 5.19527 9.16319C5.19527 10.0841 5.5611 10.9673 6.21226 11.6184C6.86343 12.2696 7.7466 12.6354 8.6675 12.6354C9.58839 12.6354 10.4716 12.2696 11.1227 11.6184C11.7739 10.9673 12.1397 10.0841 12.1397 9.16319C12.1397 8.2423 11.7739 7.35913 11.1227 6.70796C10.4716 6.05679 9.58839 5.69097 8.6675 5.69097ZM8.6675 7.07986C8.94108 7.07982 9.212 7.13366 9.46478 7.23831C9.71756 7.34297 9.94725 7.49639 10.1407 7.68981C10.3342 7.88323 10.4877 8.11287 10.5925 8.36562C10.6972 8.61836 10.7511 8.88926 10.7512 9.16285C10.7512 9.43643 10.6974 9.70735 10.5927 9.96013C10.4881 10.2129 10.3347 10.4426 10.1412 10.6361C9.9478 10.8296 9.71816 10.9831 9.46542 11.0878C9.21268 11.1925 8.94178 11.2465 8.66819 11.2465C8.11566 11.2465 7.58575 11.027 7.19505 10.6363C6.80435 10.2456 6.58486 9.71573 6.58486 9.16319C6.58486 8.61066 6.80435 8.08076 7.19505 7.69005C7.58575 7.29935 8.11566 7.07986 8.66819 7.07986M12.314 4.64931C12.0838 4.64931 11.863 4.74076 11.7002 4.90355C11.5374 5.06635 11.446 5.28714 11.446 5.51736C11.446 5.74758 11.5374 5.96838 11.7002 6.13117C11.863 6.29396 12.0838 6.38542 12.314 6.38542C12.5442 6.38542 12.765 6.29396 12.9278 6.13117C13.0906 5.96838 13.1821 5.74758 13.1821 5.51736C13.1821 5.28714 13.0906 5.06635 12.9278 4.90355C12.765 4.74076 12.5442 4.64931 12.314 4.64931Z" fill="#EAEAEA"/>
</svg>
