<svg width="93" height="92" viewBox="0 0 93 92" fill="none" xmlns="http://www.w3.org/2000/svg">
<path d="M26.8134 41.5381C27.3298 42.1267 27.8435 42.7174 28.342 43.3226C28.61 43.6402 28.8755 43.9624 29.1642 44.2608C30.7066 45.8521 32.2694 47.4259 33.7728 49.0548C34.6935 50.0619 35.6036 51.0786 36.5031 52.1048L37.8474 53.6482L39.1741 55.2065C39.4343 55.5288 39.6677 55.8715 39.8722 56.2312C39.9626 56.3748 40.017 56.5378 40.031 56.707C40.045 56.8761 40.018 57.0465 39.9524 57.204C39.7803 57.6442 39.2901 57.7558 38.8498 57.407C38.5691 57.1732 38.3194 56.9053 38.1065 56.6096C37.6084 55.9453 37.0834 55.3048 36.5316 54.6883C35.9821 54.0697 35.4069 53.4737 34.806 52.9003C34.4746 52.5835 34.1094 52.2718 33.8603 51.9003C33.0633 50.7147 32.0257 49.7253 31.1375 48.6147C30.4767 47.7896 29.7517 47.0135 29.0651 46.2077L27.2263 44.0537C26.6094 43.3393 26.0099 42.6088 25.3948 41.892C25.1632 41.6061 24.9511 41.3052 24.7597 40.9913C24.5862 40.6899 24.4299 40.3791 24.2914 40.0603C24.1682 39.7786 24.3312 39.6539 24.6369 39.8313C25.0748 40.0868 25.4938 40.3724 25.8909 40.6861C26.0542 40.8147 26.2106 40.9533 26.3609 41.0984C26.505 41.2494 26.6495 41.4009 26.7932 41.5515L26.8134 41.5381Z" fill="#55B250"/>
<path d="M47.4138 31.4242L47.6536 32.3952L47.8698 33.3734C47.9471 33.7192 48.0246 34.0667 48.1313 34.404C48.2725 34.8544 48.4194 35.3031 48.5681 35.7511L49.006 37.0971L49.8873 39.786L50.9641 43.0994L52.0595 46.4073C52.1611 46.7454 52.238 47.0906 52.2896 47.4401C52.3167 47.5824 52.3097 47.7294 52.2692 47.8692C52.2288 48.009 52.1559 48.1378 52.0565 48.2454C51.7885 48.5479 51.3684 48.4909 51.1199 48.0765C50.9643 47.8037 50.8451 47.5118 50.7651 47.2082C50.3743 45.837 49.8961 44.4923 49.3334 43.1823C49.155 42.8285 49.018 42.4554 48.9253 42.0701C48.7067 40.8586 48.2414 39.7177 47.9516 38.5277C47.7371 37.6437 47.4582 36.7741 47.2391 35.89C46.8545 34.3118 46.4858 32.7309 46.1756 31.1364C46.0512 30.5324 46.0289 29.9113 46.1095 29.2983C46.1438 29.0328 46.3491 28.9983 46.5008 29.2572C46.7151 29.6296 46.9044 30.0157 47.0676 30.4131C47.1961 30.7441 47.3046 31.0825 47.3926 31.4265L47.4138 31.4242Z" fill="#55B250"/>
<path d="M68.7658 34.2364C68.5685 34.7829 68.3686 35.3289 68.1662 35.8743C68.0462 36.1594 67.9434 36.4511 67.8583 36.7479C67.6489 37.5427 67.4571 38.3423 67.2657 39.1413C67.0731 39.9401 66.8756 40.737 66.6653 41.5302C66.4085 42.5076 66.1414 43.482 65.8765 44.457L65.0657 47.3778C64.9709 47.6736 64.8402 47.9571 64.6763 48.2221C64.5282 48.4824 64.2235 48.5994 63.8573 48.6286C63.3237 48.6713 62.8426 48.3773 62.8234 47.9475C62.82 47.673 62.8741 47.4002 62.9825 47.1465C63.4318 45.984 63.7417 44.7744 63.9057 43.5427C63.9525 43.2012 63.9743 42.8381 64.1359 42.5371C64.6472 41.575 64.8183 40.5129 65.2149 39.5187C65.5069 38.7796 65.7281 38.0159 66.0059 37.2716C66.2534 36.6078 66.5061 35.9462 66.7638 35.2865L67.5785 33.3217C67.7882 32.8081 68.1183 32.3503 68.5415 31.9865C68.582 31.9472 68.6334 31.9207 68.689 31.9104C68.7446 31.9 68.8019 31.9063 68.8535 31.9285C68.9051 31.9506 68.9488 31.9875 68.9788 32.0346C69.0089 32.0816 69.0239 32.1366 69.0221 32.1924C69.0286 32.5717 69.0124 32.9512 68.9735 33.329C68.9185 33.633 68.8409 33.9329 68.7414 34.226L68.7658 34.2364Z" fill="#55B250"/>
<path d="M78.5452 48.5109C78.4343 48.622 78.3277 48.7369 78.2099 48.8415L77.8552 49.1542C77.727 49.2615 77.6081 49.3792 77.4997 49.5061C77.2228 49.8547 76.9582 50.2147 76.6755 50.5578C76.3967 50.9044 76.1158 51.2493 75.8231 51.5832C75.4632 51.9949 75.0964 52.4002 74.7163 52.7932L73.5763 53.9726C73.4482 54.0877 73.2997 54.1784 73.1384 54.2399C72.9842 54.3093 72.7547 54.2331 72.5024 54.0831C72.1349 53.8645 71.8728 53.4939 71.9487 53.262C72.0004 53.1217 72.0956 53.0009 72.2207 52.917C72.761 52.5152 73.2163 52.0121 73.5604 51.4369C73.658 51.2769 73.7385 51.0909 73.9068 51.0038C74.4395 50.7213 74.7547 50.2303 75.2069 49.8711C75.545 49.6062 75.8203 49.2793 76.15 49.0053C76.7355 48.5141 77.3077 48.0109 77.9115 47.5372C78.1583 47.3374 78.4611 47.218 78.778 47.1954C78.8169 47.1933 78.8557 47.1997 78.8917 47.2141C78.9277 47.2284 78.96 47.2504 78.9864 47.2785C79.0128 47.3066 79.0326 47.3401 79.0445 47.3767C79.0563 47.4134 79.0599 47.4521 79.055 47.4904C79.0263 47.5947 78.9936 47.6985 78.9574 47.8004C78.924 47.9011 78.882 47.9988 78.8318 48.0926C78.744 48.2356 78.6432 48.3704 78.5306 48.4954L78.5452 48.5109Z" fill="#55B250"/>
<path d="M23.5667 65.0658C23.9369 65.1265 24.3057 65.191 24.6731 65.2591C24.8668 65.2999 25.0628 65.3292 25.2602 65.3467C25.7872 65.3707 26.3149 65.4006 26.8425 65.4404C27.3698 65.4823 27.8948 65.5442 28.4177 65.626C29.0596 65.7334 29.6986 65.8599 30.331 66.0132C30.9634 66.1661 31.5911 66.3361 32.2142 66.5232C32.4043 66.59 32.5813 66.6881 32.7379 66.8135C32.8957 66.9268 32.9435 67.1624 32.9256 67.4457C32.8992 67.8583 32.6594 68.2337 32.3878 68.2557C32.2177 68.2622 32.0493 68.2251 31.8987 68.148C31.2062 67.8274 30.4548 67.6469 29.6884 67.617C29.4758 67.6061 29.2494 67.6232 29.0634 67.527C28.4677 67.2163 27.7994 67.2079 27.1694 67.0355C26.9345 66.9727 26.6962 66.9226 26.4556 66.8855C26.2159 66.8431 25.9748 66.8081 25.7354 66.763C24.8812 66.6029 24.0216 66.4497 23.154 66.3359C22.7907 66.2765 22.4573 66.1031 22.2029 65.8413C22.0713 65.7257 22.0853 65.5439 22.2505 65.3988L22.4272 65.2735C22.4537 65.2527 22.4841 65.2372 22.5165 65.2279L22.6059 65.1968C22.7242 65.1567 22.8448 65.1237 22.9669 65.098C23.0652 65.0783 23.1653 65.0689 23.2654 65.0701C23.3648 65.0757 23.4641 65.0856 23.5633 65.0895L23.5667 65.0658Z" fill="#55B250"/>
</svg>
