<svg width="98" height="98" viewBox="0 0 98 98" fill="none" xmlns="http://www.w3.org/2000/svg">
<path d="M28.8251 47.3209C29.4302 47.8179 30.0329 48.3173 30.6231 48.8336C30.9391 49.1034 31.2534 49.3783 31.5867 49.6259C33.367 50.9456 35.1646 52.2449 36.9124 53.6081C37.9844 54.4524 39.0475 55.3078 40.1017 56.1744L41.6787 57.4791L43.2408 58.8013C43.5498 59.0772 43.8358 59.3774 44.096 59.6992C44.2085 59.8261 44.2887 59.9782 44.3299 60.1428C44.3711 60.3074 44.3722 60.4799 44.333 60.646C44.2347 61.1083 43.7691 61.298 43.278 61.0253C42.9631 60.8402 42.6732 60.6164 42.4151 60.3591C41.8157 59.7845 41.1938 59.2378 40.5492 58.719C39.9066 58.1978 39.2422 57.7031 38.5562 57.2349C38.1778 56.9761 37.7668 56.7278 37.4608 56.4017C36.4818 55.3612 35.2974 54.5533 34.2406 53.6016C33.4547 52.8948 32.6133 52.2467 31.805 51.563L29.6409 49.7361C28.9162 49.1313 28.2061 48.5078 27.4827 47.9005C27.2078 47.6559 26.9497 47.3934 26.7099 47.1147C26.4898 46.8455 26.2851 46.5642 26.0966 46.2722C25.9293 46.0142 26.07 45.8646 26.4004 45.9901C26.8739 46.1711 27.3338 46.385 27.7765 46.6299C27.9585 46.7303 28.1353 46.8418 28.3073 46.9605C28.4739 47.0861 28.6411 47.2121 28.8073 47.3374L28.8251 47.3209Z" fill="#55B250"/>
<path d="M47.5107 33.9983L47.9049 34.9175L48.277 35.8477C48.4094 36.1763 48.5424 36.5066 48.7024 36.8222C48.9149 37.2437 49.1326 37.6625 49.3521 38.0804L50.0026 39.3375L51.3088 41.8476L52.9093 44.9423L54.5271 48.0284C54.6823 48.3456 54.8142 48.6737 54.9218 49.0102C54.9716 49.1463 54.9886 49.2924 54.9714 49.4369C54.9542 49.5815 54.9032 49.7204 54.8225 49.8427C54.6073 50.1847 54.1834 50.1966 53.871 49.828C53.6732 49.5841 53.5081 49.3155 53.3799 49.0289C52.7717 47.7393 52.0816 46.4901 51.3136 45.2888C51.0801 44.9687 50.8844 44.6227 50.7304 44.2577C50.318 43.0977 49.6737 42.0475 49.1946 40.9203C48.8394 40.0829 48.423 39.27 48.0633 38.4332C47.4275 36.9384 46.8071 35.4383 46.2421 33.9154C46.0214 33.3396 45.8985 32.7303 45.8785 32.1123C45.8692 31.8449 46.0663 31.7774 46.2579 32.0083C46.5299 32.341 46.7794 32.6912 47.0049 33.0568C47.1854 33.3626 47.3475 33.6789 47.4901 34.0041L47.5107 33.9983Z" fill="#55B250"/>
<path d="M69.0367 33.3059C68.9307 33.8772 68.8222 34.4484 68.711 35.0194C68.6388 35.3201 68.5847 35.6247 68.5489 35.9314C68.4713 36.7497 68.4119 37.5698 68.3527 38.3893C68.2924 39.2087 68.2269 40.0271 68.1481 40.8439C68.0534 41.85 67.948 42.8549 67.845 43.86L67.5191 46.8737C67.4736 47.1809 67.3906 47.4819 67.2719 47.77C67.168 48.0509 66.8864 48.2158 66.5298 48.304C66.0102 48.4327 65.4877 48.2208 65.399 47.7998C65.351 47.5295 65.3602 47.2516 65.426 46.9836C65.6806 45.7635 65.79 44.5197 65.7519 43.2777C65.7426 42.9331 65.7052 42.5713 65.8157 42.2481C66.1641 41.2158 66.1605 40.14 66.3905 39.0946C66.5586 38.3179 66.6529 37.5284 66.8061 36.7488C66.9426 36.0537 67.0845 35.3598 67.2318 34.667L67.7166 32.5961C67.8401 32.0552 68.0916 31.5499 68.4501 31.1222C68.4837 31.0769 68.5301 31.0424 68.5833 31.0232C68.6364 31.0039 68.694 31.0009 68.7486 31.0143C68.8031 31.0278 68.8522 31.0572 68.8894 31.0987C68.9267 31.1402 68.9505 31.192 68.9578 31.2474C69.0258 31.6206 69.0714 31.9977 69.0943 32.3768C69.0894 32.6857 69.0615 32.9942 69.0109 33.2996L69.0367 33.3059Z" fill="#55B250"/>
<path d="M81.0008 45.7996C80.9094 45.9272 80.8229 46.0579 80.7236 46.1802L80.4244 46.5463C80.3153 46.6731 80.2171 46.8086 80.1308 46.9513C79.9141 47.3402 79.7114 47.7384 79.4882 48.1229C79.2693 48.5101 79.0482 48.896 78.8136 49.273C78.5253 49.7377 78.2291 50.1972 77.9179 50.6467L76.9845 51.9955C76.8768 52.1299 76.7449 52.2435 76.5958 52.3304C76.4549 52.4239 76.2161 52.3859 75.9428 52.2789C75.5447 52.1229 75.2259 51.7997 75.2631 51.5586C75.2913 51.4118 75.3657 51.2771 75.4755 51.174C75.9433 50.6898 76.311 50.1195 76.5572 49.496C76.6275 49.3224 76.6767 49.1257 76.8286 49.0124C77.3084 48.6472 77.5397 48.1116 77.9276 47.6837C78.2182 47.3675 78.4368 47.0002 78.7176 46.6763C79.2157 46.0966 79.6985 45.5072 80.2174 44.9417C80.4285 44.7045 80.7079 44.5375 81.0169 44.4638C81.055 44.4554 81.0943 44.4554 81.1322 44.4637C81.17 44.472 81.2055 44.4885 81.2361 44.5119C81.2667 44.5354 81.2917 44.5652 81.3093 44.5994C81.327 44.6336 81.3368 44.6713 81.3381 44.7099C81.3268 44.8175 81.3114 44.9252 81.2922 45.0316C81.2756 45.1364 81.25 45.2397 81.2156 45.3403C81.1522 45.4957 81.0746 45.6451 80.9839 45.7866L81.0008 45.7996Z" fill="#55B250"/>
<path d="M29.4426 71.0638C29.8177 71.0636 30.1921 71.0673 30.5658 71.0748C30.7635 71.0837 30.9617 71.0808 31.1593 71.066C31.6832 71.0042 32.2087 70.9479 32.7358 70.9016C33.2629 70.8574 33.791 70.8332 34.3202 70.829C34.9711 70.8308 35.6221 70.8519 36.271 70.9004C36.9199 70.9487 37.5668 71.0146 38.212 71.098C38.4104 71.133 38.6011 71.2011 38.7759 71.2994C38.95 71.3856 39.0354 71.6103 39.0638 71.8928C39.1046 72.3042 38.929 72.7135 38.6646 72.7793C38.4978 72.8133 38.3256 72.8041 38.1645 72.7525C37.4291 72.5486 36.6584 72.4924 35.8973 72.5873C35.6858 72.6111 35.4651 72.6647 35.266 72.5999C34.6277 72.3901 33.9669 72.4903 33.3173 72.4224C33.0753 72.3986 32.8321 72.3879 32.5886 72.3903C32.3452 72.3874 32.1017 72.392 31.858 72.3864C30.9893 72.3671 30.1162 72.3555 29.2416 72.384C28.8735 72.3844 28.5164 72.2674 28.2228 72.0503C28.0742 71.9577 28.0585 71.776 28.1979 71.606L28.352 71.4537C28.3748 71.4288 28.4022 71.4086 28.4327 71.3942L28.5159 71.349C28.6261 71.2902 28.7397 71.2381 28.856 71.1929C28.9498 71.1575 29.0471 71.132 29.146 71.1169C29.245 71.1063 29.3446 71.0999 29.4432 71.0877L29.4426 71.0638Z" fill="#55B250"/>
</svg>
