<svg width="72" height="72" viewBox="0 0 72 72" fill="none" xmlns="http://www.w3.org/2000/svg">
<path d="M18.9749 24.45C19.2557 25.181 19.5331 25.9129 19.7914 26.6533C19.9328 27.044 20.0704 27.4382 20.2379 27.8181C21.1343 29.8449 22.0557 31.8624 22.9023 33.9109C23.4175 35.1745 23.9195 36.4433 24.4081 37.7175L25.1352 39.6308L25.8405 41.552C25.9729 41.9444 26.0733 42.3467 26.1407 42.755C26.1758 42.9209 26.1705 43.0928 26.125 43.2563C26.0795 43.4198 25.9953 43.5703 25.8792 43.6954C25.5654 44.0488 25.0669 43.9838 24.7745 43.5042C24.5921 43.1877 24.4505 42.85 24.3532 42.4988C24.1158 41.7031 23.8449 40.9205 23.5407 40.1511C23.2392 39.3806 22.9059 38.6223 22.5406 37.8764C22.3393 37.4644 22.1046 37.0456 21.9995 36.6109C21.6621 35.2226 21.0311 33.9353 20.5822 32.5858C20.2479 31.583 19.8363 30.604 19.4711 29.6103L18.4916 26.953C18.1601 26.0692 17.8505 25.1764 17.5215 24.291C17.4032 23.9426 17.3083 23.5869 17.2374 23.2261C17.179 22.8834 17.1399 22.5376 17.1203 22.1906C17.1022 21.8837 17.2984 21.8231 17.5237 22.0953C17.8461 22.4866 18.1404 22.8996 18.4044 23.3313C18.513 23.5085 18.6117 23.6927 18.7026 23.8809C18.7855 24.0724 18.8687 24.2645 18.9513 24.4555L18.9749 24.45Z" fill="#004348"/>
<path d="M41.8027 22.0966L41.6915 23.0906L41.5557 24.0832C41.5085 24.4343 41.461 24.7872 41.4443 25.1406C41.4209 25.612 41.4034 26.0838 41.3878 26.5555L41.3328 27.9699L41.2289 30.7976L41.0923 34.279L40.975 37.7615C40.9533 38.1139 40.9059 38.4643 40.8333 38.8101C40.8095 38.953 40.7521 39.0885 40.6657 39.2057C40.5794 39.3228 40.4664 39.4185 40.3359 39.4849C39.9798 39.6761 39.6054 39.4771 39.5157 39.0023C39.4642 38.6925 39.4533 38.3774 39.4834 38.0649C39.5914 36.6431 39.6082 35.2161 39.5337 33.7922C39.4887 33.3986 39.4894 33.0011 39.5357 32.6076C39.75 31.3953 39.7084 30.1639 39.8484 28.9472C39.9531 28.0436 39.9925 27.1311 40.093 26.2258C40.2784 24.612 40.4797 23.0013 40.7405 21.398C40.8329 20.7883 41.027 20.1979 41.3148 19.6506C41.4388 19.4134 41.6434 19.4521 41.6961 19.7475C41.7683 20.1711 41.8123 20.5989 41.8278 21.0281C41.8338 21.3831 41.8185 21.7382 41.7819 22.0914L41.8027 22.0966Z" fill="#004348"/>
<path d="M60.8602 32.1231C60.4859 32.5676 60.1095 33.0106 59.7308 33.4523C59.5195 33.6782 59.3221 33.9162 59.1395 34.1652C58.6679 34.8385 58.2112 35.5222 57.755 36.2056C57.2979 36.8884 56.8368 37.5676 56.3649 38.239C55.7856 39.0671 55.1978 39.8888 54.6118 40.7119L52.8401 43.1715C52.6488 43.4162 52.428 43.6369 52.1825 43.8288C51.9535 44.0218 51.6271 44.026 51.2735 43.9267C50.7582 43.782 50.4085 43.3397 50.5393 42.9298C50.631 42.6711 50.7763 42.4339 50.9658 42.2334C51.7897 41.2982 52.4991 40.2707 53.0793 39.1719C53.2414 38.8677 53.3876 38.5346 53.6433 38.3081C54.456 37.5825 54.9842 36.6453 55.7004 35.8498C56.2302 35.2575 56.7021 34.6176 57.2203 34.0154C57.6823 33.4784 58.1484 32.945 58.6185 32.4154L60.0629 30.854C60.4374 30.4447 60.9056 30.1295 61.4286 29.9346C61.4802 29.9118 61.5375 29.9047 61.5933 29.9143C61.649 29.9238 61.7006 29.9496 61.7413 29.9882C61.7821 30.0269 61.8103 30.0766 61.8222 30.1312C61.8341 30.1857 61.8292 30.2425 61.8081 30.2942C61.683 30.6523 61.5364 31.0028 61.3692 31.3437C61.2123 31.6099 61.0358 31.8644 60.8409 32.1049L60.8602 32.1231Z" fill="#004348"/>
<path d="M65.0954 48.9025C64.953 48.9683 64.8131 49.0392 64.6664 49.0966L64.2254 49.2672C64.068 49.3235 63.9157 49.3928 63.7701 49.4744C63.3896 49.7055 63.0168 49.9517 62.6328 50.1757C62.2512 50.4043 61.8683 50.6307 61.4782 50.8427C60.998 51.1044 60.5135 51.3577 60.0209 51.5948L58.5432 52.3067C58.3831 52.3704 58.2124 52.404 58.0398 52.406C57.8711 52.4176 57.6822 52.2667 57.4975 52.0387C57.2283 51.7064 57.1107 51.268 57.2622 51.0767C57.3592 50.9629 57.4904 50.8826 57.6367 50.8471C58.2827 50.6572 58.884 50.3428 59.406 49.9222C59.5529 49.806 59.6928 49.6592 59.8808 49.6358C60.4784 49.5551 60.9441 49.2037 61.4926 49.0232C61.9016 48.8917 62.2729 48.6803 62.6772 48.5373C63.3965 48.2792 64.1074 48.0051 64.8379 47.7697C65.1386 47.6677 65.464 47.6605 65.7691 47.7489C65.8063 47.7605 65.8406 47.7799 65.8694 47.8058C65.8982 47.8317 65.9209 47.8636 65.9359 47.8991C65.951 47.9346 65.9579 47.9729 65.9564 48.0113C65.9548 48.0497 65.9448 48.0874 65.9269 48.1216C65.8639 48.2095 65.7973 48.2955 65.7281 48.3786C65.6619 48.4615 65.5886 48.5387 65.509 48.6093C65.3772 48.713 65.2359 48.8046 65.0871 48.8829L65.0954 48.9025Z" fill="#004348"/>
<path d="M7.78242 45.4036C8.10867 45.5887 8.43238 45.7768 8.75354 45.9679C8.92106 46.0733 9.09488 46.1686 9.27403 46.2533C9.76013 46.4583 10.2448 46.6689 10.726 46.8889C11.2062 47.1107 11.6774 47.3505 12.1396 47.6083C12.7047 47.9312 13.2604 48.2711 13.8007 48.6337C14.341 48.9962 14.8711 49.3729 15.3909 49.7641C15.5461 49.8925 15.6783 50.0459 15.7818 50.2177C15.8906 50.3786 15.8539 50.6162 15.739 50.8758C15.5714 51.2538 15.2165 51.5229 14.9541 51.4496C14.7923 51.3968 14.6471 51.3037 14.5325 51.1793C13.9937 50.6388 13.3513 50.2094 12.6427 49.916C12.447 49.8322 12.2287 49.7699 12.0874 49.6152C11.6361 49.1176 11.012 48.8784 10.4807 48.4985C10.282 48.3583 10.0758 48.2289 9.86289 48.1107C9.65265 47.988 9.43859 47.8718 9.22955 47.7465C8.48363 47.3007 7.73021 46.8594 6.95557 46.4523C6.63529 46.2708 6.38253 45.9928 6.23452 45.6591C6.151 45.5051 6.22706 45.3393 6.43228 45.2604L6.6415 45.204C6.67357 45.1937 6.7074 45.1896 6.74106 45.1921L6.83569 45.1939C6.96053 45.1972 7.08505 45.208 7.20857 45.2262C7.30764 45.2417 7.40475 45.2675 7.49828 45.3033C7.58955 45.343 7.67933 45.3866 7.77103 45.4247L7.78242 45.4036Z" fill="#004348"/>
</svg>
