<svg width="101" height="101" viewBox="0 0 101 101" fill="none" xmlns="http://www.w3.org/2000/svg">
<path d="M48.975 30.0061C48.568 30.6751 48.1582 31.3421 47.7301 31.999C47.5073 32.3497 47.2794 32.6995 47.0811 33.0643C46.0247 35.0125 44.991 36.9749 43.8871 38.8969C43.2019 40.077 42.5043 41.2498 41.7945 42.4153L40.7245 44.1601L39.6349 45.8925C39.4053 46.2372 39.1482 46.5625 38.8662 46.8654C38.7564 46.9946 38.6171 47.0954 38.4599 47.1593C38.3027 47.2233 38.1321 47.2486 37.9622 47.2332C37.4906 47.2008 37.2373 46.7665 37.4382 46.242C37.5773 45.9042 37.7581 45.5857 37.9765 45.294C38.4612 44.6198 38.9151 43.9271 39.3381 43.2161C39.7638 42.5066 40.1602 41.7793 40.5273 41.0342C40.7304 40.6232 40.9185 40.1814 41.1983 39.8325C42.0908 38.717 42.7242 37.4308 43.5179 36.2508C44.1073 35.3733 44.6306 34.4491 45.1939 33.5527L46.6985 31.1534C47.1954 30.3508 47.7129 29.5601 48.2125 28.7586C48.416 28.452 48.6396 28.1595 48.8818 27.883C49.1174 27.6272 49.3671 27.385 49.6298 27.1573C49.8617 26.9555 50.0295 27.0737 49.9518 27.4184C49.8391 27.9127 49.692 28.3981 49.5117 28.8709C49.4379 29.0652 49.3524 29.2559 49.259 29.4428C49.1581 29.6254 49.0569 29.8087 48.9562 29.9909L48.975 30.0061Z" fill="#55B250"/>
<path d="M64.7932 46.6296L63.9385 47.1491L63.0699 47.6482C62.7631 47.8255 62.4548 48.0036 62.1649 48.2064C61.7774 48.476 61.3933 48.7505 61.0104 49.0265L59.8573 49.8473L57.5557 51.4933L54.7167 53.5129L51.8886 55.5485C51.5964 55.7467 51.2901 55.9234 50.9721 56.0772C50.8444 56.1457 50.7021 56.1831 50.5566 56.1863C50.411 56.1896 50.2663 56.1587 50.1339 56.096C49.765 55.931 49.6937 55.513 50.0147 55.1518C50.2284 54.9217 50.4711 54.7205 50.7369 54.5533C51.9282 53.7699 53.0679 52.911 54.1494 51.9818C54.4335 51.7056 54.7485 51.4633 55.0882 51.2594C56.1788 50.688 57.128 49.9025 58.1766 49.2697C58.9558 48.8004 59.702 48.2739 60.48 47.8001C61.8706 46.9605 63.2685 46.1353 64.6969 45.3619C65.236 45.0625 65.8219 44.8552 66.431 44.7485C66.6945 44.7017 66.789 44.8873 66.5874 45.1095C66.2962 45.4255 65.9845 45.7218 65.6542 45.9964C65.3769 46.2182 65.0865 46.4231 64.7846 46.61L64.7932 46.6296Z" fill="#55B250"/>
<path d="M68.5009 67.8441C67.9204 67.8195 67.3396 67.7923 66.7586 67.7625C66.4507 67.7333 66.1416 67.7225 65.8329 67.7302C65.0118 67.7684 64.1916 67.8249 63.3718 67.8815C62.552 67.9369 61.7326 67.9871 60.9128 68.0239C59.9034 68.0715 58.8937 68.1085 57.8841 68.1478L54.8545 68.2487C54.544 68.2468 54.2343 68.207 53.9324 68.13C53.6397 68.0666 53.4368 67.8109 53.2993 67.4703C53.0988 66.974 53.2352 66.4269 53.6396 66.2799C53.9004 66.1944 54.1769 66.1644 54.4515 66.1918C55.6952 66.2724 56.9421 66.2059 58.1664 65.9936C58.5062 65.936 58.8592 65.8481 59.1948 65.9121C60.2658 66.1118 61.3303 65.9571 62.3977 66.0378C63.1904 66.0951 63.9852 66.0775 64.7786 66.1196C65.486 66.157 66.193 66.2 66.8996 66.2484L69.0181 66.4373C69.5709 66.4836 70.1066 66.6616 70.5805 66.9564C70.6301 66.9833 70.6707 67.0244 70.6972 67.0743C70.7237 67.1242 70.7349 67.1808 70.7292 67.2367C70.7236 67.2926 70.7014 67.3453 70.6655 67.388C70.6296 67.4308 70.5817 67.4616 70.5278 67.4766C70.1679 67.5964 69.801 67.6946 69.4289 67.7705C69.1223 67.8091 68.813 67.8249 68.5035 67.8177L68.5009 67.8441Z" fill="#55B250"/>
<path d="M57.8119 81.4525C57.6728 81.38 57.5312 81.3126 57.3962 81.2316L56.9916 80.9868C56.8508 80.8966 56.7029 80.8184 56.5494 80.753C56.1339 80.5931 55.7112 80.4485 55.2992 80.2815C54.885 80.1192 54.4718 79.9545 54.0656 79.7753C53.565 79.5551 53.0684 79.3265 52.5796 79.0815L51.113 78.347C50.9648 78.2593 50.8338 78.1447 50.7268 78.0093C50.6145 77.8829 50.6184 77.6411 50.686 77.3555C50.7845 76.9394 51.0596 76.5784 51.3036 76.5813C51.453 76.5886 51.5968 76.6433 51.7143 76.7375C52.2594 77.1327 52.8757 77.4165 53.5276 77.5726C53.7094 77.6178 53.9111 77.6389 54.0446 77.7734C54.4737 78.1971 55.0364 78.3508 55.5145 78.6746C55.8685 78.918 56.2629 79.0827 56.6231 79.3153C57.267 79.7269 57.9184 80.122 58.5512 80.5563C58.8157 80.732 59.0204 80.9852 59.1368 81.2807C59.1504 81.3172 59.156 81.3561 59.1531 81.3948C59.1501 81.4335 59.1388 81.4709 59.1199 81.5045C59.101 81.5381 59.075 81.567 59.0436 81.5893C59.0122 81.6115 58.9763 81.6266 58.9383 81.6333C58.8302 81.6372 58.7214 81.6371 58.6133 81.633C58.5072 81.6313 58.4014 81.6205 58.2969 81.6007C58.1342 81.5597 57.9754 81.5039 57.8224 81.434L57.8119 81.4525Z" fill="#55B250"/>
<path d="M25.5504 33.9515C25.6033 34.3229 25.6523 34.6941 25.6973 35.0651C25.7163 35.2621 25.7471 35.4579 25.7895 35.6515C25.9244 36.1615 26.0539 36.6739 26.1739 37.1892C26.2918 37.7048 26.39 38.2243 26.4685 38.7477C26.5582 39.3923 26.6288 40.0399 26.672 40.6892C26.7154 41.3383 26.7411 41.9882 26.7492 42.6386C26.7425 42.84 26.7018 43.0383 26.6291 43.2253C26.5682 43.4097 26.3577 43.5259 26.0821 43.5937C25.6805 43.692 25.2505 43.5756 25.1482 43.3231C25.0911 43.1628 25.076 42.9909 25.1045 42.8242C25.203 42.0674 25.1503 41.2965 24.9494 40.5563C24.8961 40.3502 24.812 40.1393 24.8481 39.933C24.9661 39.2716 24.774 38.6314 24.7499 37.9787C24.7394 37.7358 24.7159 37.4935 24.6793 37.2528C24.6479 37.0114 24.6091 36.7709 24.5805 36.5289C24.4774 35.666 24.3662 34.8 24.2151 33.938C24.1629 33.5736 24.2285 33.2036 24.4022 32.8825C24.473 32.7223 24.6507 32.6812 24.8386 32.7954L25.0111 32.9266C25.0389 32.9456 25.0628 32.9699 25.0814 32.9981L25.1378 33.0741C25.2114 33.1749 25.279 33.2801 25.3401 33.3889C25.3884 33.4768 25.4273 33.5695 25.4561 33.6654C25.4805 33.7618 25.5008 33.8596 25.5268 33.9554L25.5504 33.9515Z" fill="#55B250"/>
</svg>
